<svg width="280" height="44" viewBox="0 0 280 44" fill="none" xmlns="http://www.w3.org/2000/svg">
<path d="M107.891 28.5581L104.906 23.4619H101.768V28.5581H100V15.2472H105.324C106.465 15.2472 107.441 15.6529 108.253 16.4642C109.064 17.2629 109.47 18.2326 109.47 19.3736C109.47 20.2356 109.21 21.0216 108.69 21.7315C108.183 22.4414 107.524 22.9422 106.712 23.2337L109.85 28.5581H107.891ZM101.768 16.9016V21.8646H105.324C105.984 21.8646 106.541 21.6238 106.998 21.142C107.467 20.6476 107.701 20.0581 107.701 19.3736C107.701 18.689 107.467 18.1059 106.998 17.6241C106.541 17.1424 105.984 16.9016 105.324 16.9016H101.768Z" fill="#FEFEFE"/>
<path d="M122.052 26.8847H128.232V28.5581H120.283V15.2472H128.137V16.9206H122.052V21.0089H127.661V22.6633H122.052V26.8847Z" fill="#FEFEFE"/>
<path d="M143.323 28.8053C142.08 28.8053 141.015 28.5137 140.128 27.9306C139.253 27.3474 138.638 26.5488 138.283 25.5346L139.805 24.6599C140.324 26.2699 141.51 27.0749 143.361 27.0749C144.273 27.0749 144.971 26.8911 145.452 26.5234C145.934 26.1431 146.175 25.6424 146.175 25.0212C146.175 24.3874 145.934 23.912 145.452 23.595C144.971 23.2781 144.166 22.9422 143.037 22.5872C142.48 22.4097 142.055 22.2703 141.763 22.1689C141.472 22.0548 141.104 21.89 140.66 21.6745C140.229 21.4463 139.906 21.2181 139.691 20.9899C139.475 20.749 139.279 20.4385 139.101 20.0581C138.936 19.6778 138.854 19.2468 138.854 18.7651C138.854 17.6115 139.26 16.6987 140.071 16.0268C140.882 15.3423 141.871 15 143.037 15C144.09 15 145.002 15.2662 145.776 15.7987C146.562 16.3311 147.151 17.0347 147.544 17.9094L146.061 18.7651C145.49 17.396 144.483 16.7114 143.037 16.7114C142.315 16.7114 141.732 16.8889 141.288 17.2438C140.844 17.5988 140.622 18.0805 140.622 18.689C140.622 19.2722 140.832 19.7159 141.25 20.0201C141.668 20.3244 142.391 20.6413 143.418 20.9709C143.785 21.085 144.045 21.1674 144.197 21.2181C144.349 21.2688 144.584 21.3575 144.901 21.4843C145.23 21.6111 145.471 21.7125 145.623 21.7886C145.776 21.8646 145.978 21.9724 146.232 22.1118C146.498 22.2513 146.695 22.3844 146.821 22.5112C146.948 22.6379 147.094 22.7964 147.259 22.9865C147.436 23.164 147.563 23.3478 147.639 23.538C147.715 23.7281 147.779 23.95 147.829 24.2035C147.893 24.4444 147.924 24.7043 147.924 24.9832C147.924 26.1495 147.5 27.0812 146.65 27.7785C145.801 28.463 144.692 28.8053 143.323 28.8053Z" fill="#FEFEFE"/>
<path d="M160.352 26.8847H166.095V28.5581H158.584V15.2472H160.352V26.8847Z" fill="#FEFEFE"/>
<path d="M176.527 15.2472H178.296V28.5581H176.527V15.2472Z" fill="#FEFEFE"/>
<path d="M198.081 15.2472H199.85V28.5581H198.424L191.578 18.613V28.5581H189.81V15.2472H191.236L198.081 25.1733V15.2472Z" fill="#FEFEFE"/>
<path d="M221.035 28.5581H218.867L213.124 22.1689V28.5581H211.356V15.2472H213.124V21.2561L218.677 15.2472H220.844L214.969 21.7125L221.035 28.5581Z" fill="#FEFEFE"/>
<path fill-rule="evenodd" clip-rule="evenodd" d="M71.9256 26.3426C71.9385 27.5342 71.8994 28.7238 71.8081 29.9113C70.943 34.9136 68.1238 38.538 63.3507 40.7846C57.4543 43.0027 52.09 42.1848 47.2579 38.3312C45.5049 36.6572 44.252 34.6757 43.3816 32.4763C43.2148 32.0549 42.9912 31.6088 42.9117 31.2496C42.4153 29.0068 42.4545 26.7763 43.0292 24.5583C43.0974 24.3042 43.1709 24.0653 43.2641 23.7777C44.0477 21.3598 45.3986 19.278 47.3167 17.5325C48.4967 16.3562 49.7301 15.2409 51.0168 14.1868C52.3873 15.4136 53.7185 16.6774 55.0106 17.9786C53.5209 19.4114 52.0526 20.8612 50.6057 22.3279C49.8556 23.1574 49.2878 24.0868 48.9024 25.1159C48.8022 25.3836 48.7537 25.6133 48.6675 25.8966C48.5135 26.4024 48.4353 26.9229 48.4326 27.4579C48.2971 28.1068 48.4046 28.6891 48.5008 29.3784L48.55 29.5768C49.4091 33.0874 51.68 35.2992 55.363 36.2123C58.9795 36.7701 61.9749 35.7478 64.3491 33.1454C65.006 32.2978 65.6222 31.4489 65.9443 30.4379L65.9936 30.2459C66.1104 29.7309 66.1691 29.2104 66.1698 28.6846C66.3731 26.2714 65.6487 24.1525 63.9967 22.3279C59.6013 18.1919 55.2355 14.0099 50.8993 9.78176C47.8228 7.28747 44.4163 6.80422 40.6799 8.33199C36.801 10.5649 35.2543 13.8176 36.04 18.0901C36.8159 20.2037 38.108 21.9881 39.9164 23.4431C39.8405 24.4078 39.7426 25.3743 39.6227 26.3426L39.5734 27.0365C39.5734 27.0365 39.3679 29.4846 39.2703 30.692C37.6691 29.1159 36.0441 27.5547 34.3955 26.0081C29.6461 21.0416 28.7456 15.5028 31.6938 9.39144C35.1083 3.98802 40.1397 1.55314 46.7881 2.08681C49.1805 2.48447 51.3732 3.33947 53.3661 4.6518C54.7495 5.68596 56.0807 6.78258 57.3599 7.94167C58.9676 6.35859 60.7295 4.96458 62.6459 3.75963C68.7985 0.895743 74.5151 1.5277 79.7958 5.65549C83.8153 9.41226 85.2836 13.9289 84.2007 19.2053C83.7008 20.8152 82.996 22.3393 82.0863 23.7777C79.87 26.3285 77.4816 28.7448 74.921 31.0265C75.0215 30.0296 75.0802 29.026 75.0972 28.0155C75.0086 26.4813 74.8715 24.9571 74.686 23.4431C76.1465 22.1556 77.3211 20.6687 78.21 18.9823C79.5852 14.7364 78.391 11.335 74.6273 8.77807C69.3663 6.38841 65.0397 7.44786 61.6474 11.9564C61.5691 12.0679 61.5691 12.1795 61.6474 12.291C63.4812 13.9402 65.2823 15.613 67.0508 17.3094C67.968 18.2346 68.8295 19.2011 69.635 20.209C70.8487 22.1057 71.6122 24.1503 71.9256 26.3426Z" fill="#3DA466"/>
</svg>
